<?xml version="1.0" encoding="UTF-8"?>
<svg width="182px" height="38px" viewBox="0 0 182 38" version="1.1" xmlns="http://www.w3.org/2000/svg" xmlns:xlink="http://www.w3.org/1999/xlink">
    <!-- Generator: Sketch 55.2 (78181) - https://sketchapp.com -->
    <title>everbridge-logo</title>
    <desc>Created with Sketch.</desc>
    <g id="App" stroke="none" stroke-width="1" fill="none" fill-rule="evenodd">
        <g id="Login" transform="translate(-96.000000, -334.000000)" fill="#FFFFFF" fill-rule="nonzero">
            <g id="everbridge-logo" transform="translate(96.000000, 334.000000)">
                <path d="M178.499095,9.5057947 C176.936999,9.5057947 175.687322,10.7557947 175.687322,12.3182947 C175.687322,13.8807947 176.936999,15.1307947 178.499095,15.1307947 C180.06119,15.1307947 181.310867,13.8807947 181.310867,12.3182947 C181.310867,10.8182947 180.06119,9.5057947 178.499095,9.5057947 M178.499095,15.8807947 C176.562096,15.8807947 175,14.3182947 175,12.3807947 C175,10.4432947 176.562096,8.8807947 178.499095,8.8807947 C180.436093,8.8807947 181.998189,10.4432947 181.998189,12.4432947 C182.060673,14.3182947 180.498577,15.8807947 178.499095,15.8807947" id="Shape"></path>
                <path d="M177.807692,12.6807947 C177.807692,12.6807947 177.807692,12.6807947 177.807692,12.6807947 C177.923077,12.6807947 178.038462,12.6807947 178.153846,12.6807947 C178.269231,12.6807947 178.326923,12.6807947 178.384615,12.614128 C178.5,12.5474614 178.615385,12.4807947 178.615385,12.3474614 C178.673077,12.214128 178.673077,12.0807947 178.615385,11.9474614 C178.557692,11.814128 178.5,11.7474614 178.384615,11.6807947 C178.326923,11.6807947 178.211538,11.614128 178.153846,11.614128 C178.038462,11.614128 177.923077,11.614128 177.75,11.614128 C177.75,11.614128 177.75,11.614128 177.75,11.614128 L177.75,12.6807947 L177.807692,12.6807947 Z M180,14.8807947 L180,14.8807947 C179.653846,14.8807947 179.365385,14.8807947 179.076923,14.8807947 C179.076923,14.8807947 179.076923,14.8807947 179.076923,14.8807947 C178.961538,14.5474614 178.788462,14.214128 178.673077,13.8807947 C178.615385,13.7474614 178.557692,13.6807947 178.5,13.5474614 C178.442308,13.414128 178.326923,13.414128 178.211538,13.3474614 C178.096154,13.3474614 177.980769,13.3474614 177.865385,13.3474614 C177.865385,13.3474614 177.865385,13.3474614 177.865385,13.3474614 L177.865385,14.814128 L177,14.814128 L177,10.8807947 C177,10.8807947 177,10.8807947 177,10.8807947 C177.461538,10.8807947 177.923077,10.8807947 178.326923,10.8807947 C178.5,10.8807947 178.615385,10.8807947 178.788462,10.9474614 C178.903846,10.9474614 179.076923,11.014128 179.192308,11.0807947 C179.365385,11.214128 179.480769,11.3474614 179.538462,11.614128 C179.596154,11.814128 179.596154,12.0807947 179.538462,12.2807947 C179.480769,12.5474614 179.365385,12.7474614 179.134615,12.8807947 C179.076923,12.9474614 179.019231,12.9474614 178.961538,12.9474614 C178.961538,12.9474614 178.961538,12.9474614 178.961538,12.9474614 C179.019231,12.9474614 179.019231,13.014128 179.076923,13.014128 C179.192308,13.0807947 179.25,13.1474614 179.365385,13.2807947 C179.480769,13.414128 179.538462,13.5474614 179.596154,13.6807947 C179.711538,14.1474614 179.826923,14.4807947 180,14.8807947 C180,14.814128 180,14.8807947 180,14.8807947 L180,14.8807947 Z" id="Shape"></path>
                <path d="M57.1718973,22.8426268 C57.1130978,20.0334665 55.4079135,17.468581 52.52674,17.468581 C49.6455665,17.468581 47.9991816,20.0945352 47.7051843,22.8426268 L57.1718973,22.8426268 L57.1718973,22.8426268 Z M47.7639838,24.3693443 C47.7639838,27.0563672 49.1751708,30.2930084 52.5855394,30.2930084 C55.1727156,30.2930084 56.5839027,28.7052222 57.1718973,26.4456802 L58.935881,26.4456802 C58.1714881,29.8655275 56.2311059,31.8807947 52.5855394,31.8807947 C47.9403822,31.8807947 46,28.1556039 46,23.8807947 C46,19.9113291 47.9403822,15.8807947 52.5855394,15.8807947 C57.2894962,15.8807947 59.1122794,20.1556039 58.9946805,24.3693443 L47.7639838,24.3693443 L47.7639838,24.3693443 Z" id="Shape"></path>
                <polygon id="Path" points="60 16.8807947 61.95 16.8807947 66.5590909 30.0662786 66.6181818 30.0662786 71.1681818 16.8807947 73 16.8807947 67.5045455 31.8807947 65.6136364 31.8807947"></polygon>
                <path d="M85.2306967,22.8426268 C85.1718973,20.0334665 83.4667129,17.468581 80.5855394,17.468581 C77.7043659,17.468581 76.0579811,20.0945352 75.7639838,22.8426268 L85.2306967,22.8426268 L85.2306967,22.8426268 Z M75.7639838,24.3693443 C75.7639838,27.0563672 77.1751708,30.2930084 80.5855394,30.2930084 C83.1727156,30.2930084 84.5839027,28.7052222 85.1718973,26.4456802 L86.935881,26.4456802 C86.1714881,29.8655275 84.2311059,31.8807947 80.5855394,31.8807947 C75.9403822,31.8807947 74,28.1556039 74,23.8807947 C74,19.9113291 75.9403822,15.8807947 80.5855394,15.8807947 C85.2894962,15.8807947 87.1122794,20.1556039 86.9946805,24.3693443 L75.7639838,24.3693443 L75.7639838,24.3693443 Z" id="Shape"></path>
                <path d="M90,17.0671903 L91.5934959,17.0671903 L91.5934959,20.5316623 L91.6504065,20.5316623 C92.504065,18.1423712 94.4390244,16.7685289 97,16.8879935 L97,18.6799617 C93.8699187,18.5007649 91.7642276,20.8900559 91.7642276,23.9961343 L91.7642276,31.8807947 L90.0569106,31.8807947 L90.0569106,17.0671903 L90,17.0671903 Z" id="Path"></path>
                <path d="M105.910638,18.4022847 C102.634043,18.4022847 101.382979,21.2303649 101.382979,24.0584451 C101.382979,27.0068692 102.693617,29.7146056 106.029787,29.7146056 C109.365957,29.7146056 110.438298,26.8263534 110.438298,23.9381013 C110.438298,21.1100211 109.008511,18.4022847 105.910638,18.4022847 L105.910638,18.4022847 Z M99,10.8807947 L101.442553,10.8807947 L101.442553,18.5828004 L101.502128,18.5828004 C102.276596,16.9581586 104.182979,16.2360956 106.208511,16.2360956 C110.73617,16.2360956 113,19.8464107 113,24.1186171 C113,28.3306514 110.795745,31.8807947 106.268085,31.8807947 C104.778723,31.8807947 102.574468,31.2790755 101.502128,29.5340898 L101.442553,29.5340898 L101.442553,31.5197632 L99,31.5197632 L99,10.8807947 L99,10.8807947 Z" id="Shape"></path>
                <path d="M115.061069,17.2444256 L117.381679,17.2444256 L117.381679,20.3257665 L117.442748,20.3257665 C118.664122,17.9555043 120.312977,16.7703732 123,16.8888863 L123,19.4369182 C118.969466,19.4369182 117.503817,21.6294107 117.503817,25.3625737 L117.503817,31.8807947 L115,31.8807947 L115,17.2444256 L115.061069,17.2444256 Z" id="Path"></path>
                <path d="M126,16.6971212 L128,16.6971212 L128,31.8807947 L126,31.8807947 L126,16.6971212 L126,16.6971212 Z M128,13.9420192 L126,13.9420192 L126,10.8807947 L128,10.8807947 L128,13.9420192 L128,13.9420192 Z" id="Shape"></path>
                <path d="M137.148936,29.7687257 C140.425532,29.7687257 141.676596,26.9325188 141.676596,24.0963119 C141.676596,21.1394154 140.365957,18.4238982 137.029787,18.4238982 C133.693617,18.4238982 132.621277,21.3204499 132.621277,24.2170016 C132.561702,27.0532085 133.991489,29.7687257 137.148936,29.7687257 L137.148936,29.7687257 Z M144,31.5790706 L141.557447,31.5790706 L141.557447,29.5273464 L141.497872,29.5273464 C140.723404,31.1566568 138.817021,31.8807947 136.791489,31.8807947 C132.26383,31.8807947 130,28.1997602 130,23.9756223 C130,19.7514844 132.204255,16.1911395 136.731915,16.1911395 C138.221277,16.1911395 140.425532,16.7945878 141.497872,18.5445878 L141.557447,18.5445878 L141.557447,10.8807947 L144,10.8807947 L144,31.5790706 L144,31.5790706 Z" id="Shape"></path>
                <path d="M157.482456,24.2751609 C157.482456,21.672344 156.315789,19.0103722 153.122807,19.0103722 C149.929825,19.0103722 148.640351,21.5540341 148.640351,24.3343158 C148.640351,26.9962877 149.622807,29.9540341 152.938596,29.9540341 C156.254386,29.9540341 157.482456,27.0554426 157.482456,24.2751609 L157.482456,24.2751609 Z M160,30.6638933 C160,35.4554426 157.72807,37.8807947 152.938596,37.8807947 C150.052632,37.8807947 146.798246,36.756851 146.614035,33.5624848 L149.131579,33.5624848 C149.254386,35.3371327 151.403509,35.928682 153.061404,35.928682 C156.315789,35.928682 157.605263,33.6807947 157.605263,30.3681186 L157.605263,29.4216398 L157.54386,29.4216398 C156.745614,31.1962877 154.719298,32.0836116 152.815789,32.0836116 C148.27193,32.0836116 146,28.6526257 146,24.6300905 C146,21.1399496 147.780702,16.8807947 153.061404,16.8807947 C154.964912,16.8807947 156.684211,17.7089637 157.605263,19.3061468 L157.605263,19.3061468 L157.605263,17.2357243 L159.938596,17.2357243 L159.938596,30.6638933 L160,30.6638933 Z" id="Shape"></path>
                <path d="M173.360202,22.4038716 C173.23805,20.0038716 171.466835,18.0961793 168.962705,18.0961793 C166.336421,18.0961793 164.809512,20.0654101 164.626283,22.4038716 L173.360202,22.4038716 L173.360202,22.4038716 Z M175.74218,26.6500255 C175.07034,30.0346409 172.688362,31.8807947 169.268086,31.8807947 C164.443054,31.8807947 162.122153,28.4961793 162,23.8192562 C162,19.2654101 164.992741,15.8807947 169.145934,15.8807947 C174.520653,15.8807947 176.169715,20.9269485 175.986486,24.6192562 L164.626283,24.6192562 C164.565207,27.2654101 166.03104,29.6654101 169.329163,29.6654101 C171.405759,29.6654101 172.810515,28.6807947 173.23805,26.7115639 L175.74218,26.7115639 L175.74218,26.6500255 Z" id="Shape"></path>
                <path d="M44,30.8807947 L44,29.0207947 C29.3474576,27.4007947 17.9576271,15.4007947 17.8389831,0.880794702 L16,0.880794702 C16.1186441,16.4207947 28.3389831,29.2607947 44,30.8807947 L44,30.8807947 Z" id="Path"></path>
                <path d="M17,0.880794702 L15.1637631,0.880794702 C15.1045296,5.11608882 13.3275261,9.11608882 10.1289199,12.1749123 C7.34494774,14.8219712 3.85017422,16.46903 0,17.0572653 L0,18.8807947 C4.32404181,18.3513829 8.29268293,16.46903 11.3728223,13.5278535 C14.9268293,10.1160888 16.9407666,5.64550058 17,0.880794702 L17,0.880794702 Z" id="Path"></path>
                <path d="M23,0.880794702 L21.0935829,0.880794702 C20.9705882,7.00943548 18.4491979,12.713319 13.8368984,17.1429306 C10.0855615,20.7230277 5.22727273,23.0895326 0,23.9390471 L0,25.8807947 C5.71925134,25.0312801 11.0080214,22.4827364 15.1283422,18.5385617 C20.171123,13.7448724 22.8770053,7.49487237 23,0.880794702 L23,0.880794702 Z" id="Path"></path>
                <path d="M28.847769,17.9807947 C33.0131234,21.7007947 38.2650919,24.1007947 44,24.8807947 L44,22.9607947 C38.7480315,22.1807947 33.9186352,19.9607947 30.1154856,16.5407947 C25.4671916,12.3407947 22.9317585,6.8207947 22.8713911,0.880794702 L21,0.880794702 C21.0603675,7.3607947 23.8372703,13.4207947 28.847769,17.9807947 L28.847769,17.9807947 Z" id="Path"></path>
                <path d="M44,18.8807947 L44,17.014574 C40.122807,16.5329686 36.5438596,14.8473499 33.7403509,12.1383198 C30.6385965,9.06808567 28.9087719,5.09484152 28.8491228,0.880794702 L27,0.880794702 C27.0596491,5.63664754 29.0280702,10.091497 32.5473684,13.4627345 C35.5894737,16.5329686 39.645614,18.3991894 44,18.8807947 L44,18.8807947 Z" id="Path"></path>
                <path d="M28,0.880794702 L26.1413276,0.880794702 C26.0813704,8.2918619 23.2034261,15.2286208 17.8672377,20.5645892 C13.0706638,25.3076722 6.83511777,28.272099 0,29.04285 L0,30.8807947 C7.31477516,30.1100437 14.0299786,26.9677512 19.1862955,21.868937 C24.8222698,16.2365259 27.9400428,8.7661702 28,0.880794702 L28,0.880794702 Z" id="Path"></path>
            </g>
        </g>
    </g>
</svg>